# xmcd
#
# Track frame offsets:
#	150
#	3509
#	46546
#	66873
#	82161
#	109951
#	129261
#	146429
#	165737
#	179769
#	201507
#	222615
#	237420
#	267067
#	278792
#
# Disc length: 3899
#
# Revision: 5
# Processed by: cddbd v1.5.1PL0 Copyright (c) Steve Scherf et al.
# Submitted via: ExactAudioCopy v0.90b4
# Normalized: r4:DSETVAR1
#
DISCID=e30f390f
DTITLE=Various Artist - Spiegel Jazz Edition Vol.8 - Superswing
DYEAR=1998
DGENRE=Jazz
TTITLE0=Benny Goodman - Let's Dance
TTITLE1=Buck Clayton - Undecided
TTITLE2=The Big Eighteen - Tuxedo Junction
TTITLE3=Gene Krupa - Let me off Uptown
TTITLE4=All Stars - Session as Midnight - Blue Lou
TTITLE5=The Big Eighteen - Summit Ridge Drive
TTITLE6=Duke Ellington and Count Basie - Take the 'A' Train
TTITLE7=Woody Herman - Four Brothers
TTITLE8=Lionel Hampton - Air Mail Special
TTITLE9=Count Basie - Li'l Darling
TTITLE10=The Big Eighteen - Skyliner
TTITLE11=Shorty Rogers - Short Shop
TTITLE12=Ray Anthony - Flyin' Home
TTITLE13=Stan Kenton - Artistry in Rhythm
TTITLE14=Benny Goodman - Don't be that way
EXTD=
EXTT0=
EXTT1=
EXTT2=
EXTT3=
EXTT4=
EXTT5=
EXTT6=
EXTT7=
EXTT8=
EXTT9=
EXTT10=
EXTT11=
EXTT12=
EXTT13=
EXTT14=
PLAYORDER=
